<?xml version="1.0" encoding="UTF-8" standalone="no"?>
<!-- Created with Inkscape (http://www.inkscape.org/) -->

<svg
   xmlns:dc="http://purl.org/dc/elements/1.1/"
   xmlns:cc="http://creativecommons.org/ns#"
   xmlns:rdf="http://www.w3.org/1999/02/22-rdf-syntax-ns#"
   xmlns:svg="http://www.w3.org/2000/svg"
   xmlns="http://www.w3.org/2000/svg"
   xmlns:sodipodi="http://sodipodi.sourceforge.net/DTD/sodipodi-0.dtd"
   xmlns:inkscape="http://www.inkscape.org/namespaces/inkscape"
   width="210mm"
   height="297mm"
   viewBox="0 0 744.09448819 1052.3622047"
   id="svg4326"
   version="1.1"
   inkscape:version="0.91 r"
   sodipodi:docname="soberana corte 1.1.svg">
  <defs
     id="defs4328">
    <inkscape:path-effect
       effect="ruler"
       id="path-effect4280"
       is_visible="true"
       unit="mm"
       mark_distance="1"
       mark_length="6"
       minor_mark_length="3"
       major_mark_steps="4"
       shift="4"
       offset="7.3"
       mark_dir="left"
       border_marks="none" />
  </defs>
  <sodipodi:namedview
     id="base"
     pagecolor="#ffffff"
     bordercolor="#666666"
     borderopacity="1.0"
     inkscape:pageopacity="0.0"
     inkscape:pageshadow="2"
     inkscape:zoom="1.3438468"
     inkscape:cx="229.91795"
     inkscape:cy="825.32235"
     inkscape:document-units="px"
     inkscape:current-layer="g5160"
     showgrid="false"
     showguides="true"
     inkscape:guide-bbox="true"
     inkscape:window-width="1280"
     inkscape:window-height="734"
     inkscape:window-x="0"
     inkscape:window-y="27"
     inkscape:window-maximized="1">
    <sodipodi:guide
       position="427.13203,724.78502"
       orientation="0,1"
       id="guide5153" />
  </sodipodi:namedview>
  <metadata
     id="metadata4331">
    <rdf:RDF>
      <cc:Work
         rdf:about="">
        <dc:format>image/svg+xml</dc:format>
        <dc:type
           rdf:resource="http://purl.org/dc/dcmitype/StillImage" />
        <dc:title></dc:title>
      </cc:Work>
    </rdf:RDF>
  </metadata>
  <g
     inkscape:label="Layer 1"
     inkscape:groupmode="layer"
     id="layer1">
    <rect
       y="-110.11049"
       x="347.14038"
       height="10.440538"
       width="35.143356"
       id="rect6512"
       style="display:inline;opacity:1;fill:none;fill-opacity:1;stroke:#000000;stroke-width:0.2897135;stroke-linecap:butt;stroke-linejoin:miter;stroke-miterlimit:6.18181801;stroke-dasharray:none;stroke-opacity:1;enable-background:new"
       transform="matrix(0,1,-1,0,0,0)" />
    <path
       inkscape:connector-curvature="0"
       id="path4697"
       d="m -305.25011,15.737181 c -19.59909,0 -35.3773,16.21557 -35.3773,36.35846 l 0,254.513129 c 0,19.8133 15.27733,36.1114 34.42955,36.6302 6.29551,0.066 12.79716,0.024 18.32926,0.016 3.4e-4,0 -3.8e-4,0 0,0 5.56525,1.5702 10.64506,4.5257 14.76833,8.5926 l 181.845664,0 c 4.10593,-4.0621 9.16611,-7.0148 14.70982,-8.5965 l 19.62025,0 0.0469,0 c 19.28022,-0.3728 34.64789,-16.7381 34.64789,-36.6455 l 0,-254.513139 c 0,-20.14288 -15.7782,-36.35846 -35.3773,-36.35846 l -247.641084,0 -0.002,0 z"
       style="display:inline;fill:none;fill-opacity:1;stroke:#000000;stroke-width:0.5;stroke-linecap:butt;stroke-linejoin:round;stroke-miterlimit:10;stroke-dasharray:none;stroke-opacity:1;enable-background:new"
       sodipodi:nodetypes="cssccccccccsssccc" />
    <circle
       style="display:inline;opacity:1;fill:#ff0000;fill-opacity:1;stroke:#000000;stroke-width:0.70866144;stroke-linecap:butt;stroke-linejoin:miter;stroke-miterlimit:4;stroke-dasharray:none;stroke-opacity:1;enable-background:new"
       id="path4459"
       cx="-181.42952"
       cy="248.71114"
       r="8.5039368" />
    <circle
       style="display:inline;opacity:1;fill:#ffaaaa;fill-opacity:1;stroke:#000000;stroke-width:0.70866144;stroke-linecap:butt;stroke-linejoin:miter;stroke-miterlimit:4;stroke-dasharray:none;stroke-opacity:1;enable-background:new"
       id="path4463"
       cx="-181.43166"
       cy="196.41042"
       r="2.3031497" />
    <g
       transform="translate(-341.23481,-699.90453)"
       style="display:inline;enable-background:new"
       id="g6481">
      <circle
         r="5.1879606"
         cy="739.56018"
         cx="21.622221"
         id="path6450"
         style="opacity:1;fill:none;fill-opacity:1;stroke:#000000;stroke-width:0.25400001;stroke-linecap:butt;stroke-linejoin:miter;stroke-miterlimit:10;stroke-dasharray:none;stroke-opacity:1" />
      <circle
         style="opacity:1;fill:none;fill-opacity:1;stroke:#000000;stroke-width:0.25400001;stroke-linecap:butt;stroke-linejoin:miter;stroke-miterlimit:10;stroke-dasharray:none;stroke-opacity:1"
         id="circle6473"
         cx="298.00244"
         cy="739.55969"
         r="5.1879606" />
      <circle
         style="opacity:1;fill:none;fill-opacity:1;stroke:#000000;stroke-width:0.25400001;stroke-linecap:butt;stroke-linejoin:miter;stroke-miterlimit:10;stroke-dasharray:none;stroke-opacity:1"
         id="circle6475"
         cx="21.622221"
         cy="1015.9369"
         r="5.1879606" />
      <circle
         r="5.1879606"
         cy="1015.9379"
         cx="298.00244"
         id="circle6477"
         style="opacity:1;fill:none;fill-opacity:1;stroke:#000000;stroke-width:0.25400001;stroke-linecap:butt;stroke-linejoin:miter;stroke-miterlimit:10;stroke-dasharray:none;stroke-opacity:1" />
    </g>
    <g
       style="display:inline;enable-background:new"
       id="g4432"
       inkscape:transform-center-x="0.033145632"
       inkscape:transform-center-y="2.4709675"
       transform="translate(-341.23481,-758.25929)">
      <ellipse
         ry="10.27559"
         rx="10.275591"
         cy="877.74091"
         cx="159.80315"
         id="path4274"
         style="display:inline;opacity:1;fill:none;fill-opacity:1;stroke:#000000;stroke-width:0.70866144;stroke-linecap:butt;stroke-linejoin:miter;stroke-miterlimit:4;stroke-dasharray:none;stroke-opacity:1;enable-background:new" />
      <g
         inkscape:transform-center-x="-0.035156251"
         inkscape:transform-center-y="-2.4644955"
         id="g4385"
         style="display:inline;enable-background:new">
        <g
           transform="matrix(-1,0,0,-1,580.73107,1830.6301)"
           inkscape:transform-center-y="2.4671199"
           inkscape:transform-center-x="0.032244589"
           id="g4418">
          <path
             inkscape:transform-center-y="-3.3279231"
             inkscape:transform-center-x="0.018737469"
             transform="matrix(0.4957335,0.86847469,-0.86847469,0.4957335,1104.9349,379.59177)"
             d="m 183.39764,878.41333 c 0,13.50271 -10.94611,24.44882 -24.44882,24.44882 -13.50271,0 -24.44882,-10.94611 -24.44882,-24.44882 0,-13.50271 10.94611,-24.44882 24.44882,-24.44882 13.50271,0 24.44882,10.94611 24.44882,24.44882 z m -12.45322,21.30377 10.43095,18.52501 m -13.63342,-17.01594 3.8231,9.91862 m -7.20993,-8.88787 2.35057,10.36677 m -5.85075,-9.83596 0.82874,10.59757 m -4.3689,-10.57782 -1.4209,21.21231 m -2.08499,-21.70404 -2.23475,10.39236 m -1.16337,-11.38525 -3.71219,9.96066 m 0.49309,-11.43391 -5.1118,9.32012 m 2.13922,-11.24282 -12.80847,16.96832 m 10.14472,-19.30018 -7.56238,7.47032 m 5.26333,-10.16242 -8.56197,6.29983 m 6.67582,-9.29575 -9.38203,4.99727 m 7.94832,-8.23417 -20.01077,7.17983 m 19.05957,-10.58986 -10.41895,2.1073 m 9.97021,-5.61895 -10.61406,0.58049 m 10.67717,-4.12013 -10.58662,-0.95849 m 11.16026,-2.53493 -20.67441,-4.95474 m 21.74657,1.58079 -9.87106,-3.94431 m 11.41924,0.76057 -9.19793,-5.32854 m 11.18968,2.40176 -8.33195,-6.60104 m 10.72551,3.99261 -14.58255,-15.4703 m 17.32773,13.23488 -6.09772,-8.70707 m 9.13695,6.89156 -4.77631,-9.49643 m 8.04589,8.13887 -3.35476,-10.08667 m 6.78611,9.21554 -3.72573,-20.93083 m 7.24692,20.56439 -0.33191,-10.62474 m 3.86911,10.77068 1.206,-10.56129 m 2.27304,11.21654 2.71863,-10.27639 m 0.6293,11.42722 8.3485,-19.55207 m -5.20186,21.17434 5.54235,-9.0707 m -2.663,11.13041 6.79424,-8.17518 m -4.24254,10.62913 7.90368,-7.10824 m -5.73312,9.90498 17.69479,-11.78453 m -15.95091,14.86543 9.60561,-4.55275 m -8.32495,7.8532 10.16242,-3.11777 m -9.37183,6.56857 10.50615,-1.61742 m -10.22223,5.14622 21.25919,-0.16631"
             sodipodi:ry="24.448818"
             sodipodi:rx="24.448818"
             sodipodi:cy="878.41333"
             sodipodi:cx="158.94882"
             sodipodi:type="arc"
             inkscape:path-effect="#path-effect4280"
             id="path4276"
             style="opacity:1;fill:none;fill-opacity:1;stroke:#00ffff;stroke-width:0.70866144;stroke-linecap:butt;stroke-linejoin:miter;stroke-miterlimit:4;stroke-dasharray:none;stroke-opacity:1" />
          <path
             d="m 376.24117,983.39171 -0.0577,-11.60981 c 0,-0.14282 -0.0549,-0.33507 -0.16479,-0.57677 -0.0714,-0.17578 -0.15107,-0.31037 -0.23896,-0.40375 l -1.68091,-1.74683 c -0.0605,-0.0275 -0.13458,-0.0659 -0.22247,-0.11536 -0.0879,-0.055 -0.18951,-0.11261 -0.30487,-0.17303 -0.21973,-0.0769 -0.39277,-0.11536 -0.5191,-0.11536 l -3.13111,0 0,4.5813 1.68091,0 0,10.15961 z m -0.86518,-0.86518 -1.21947,0 0,-10.51391 -1.33485,-1.33484 -2.03521,0 0,-1.16181 2.26593,0 c 0.14831,0 0.2829,0.0605 0.40375,0.18128 l 1.68915,1.68091 c 0.11536,0.11536 0.17303,0.24994 0.17303,0.40374 z m -1.6809,0 -1.22772,0 0,-10.1596 -1.68091,0 0,-1.1618 2.03521,0 0.8075,0.80749 z"
             style="font-style:normal;font-variant:normal;font-weight:normal;font-stretch:normal;font-size:22.5px;line-height:125%;font-family:LunaEclipsed;-inkscape-font-specification:LunaEclipsed;letter-spacing:0px;word-spacing:0px;fill:#00ffff;fill-opacity:1;stroke:#00ffff;stroke-width:0;stroke-linecap:butt;stroke-linejoin:miter;stroke-miterlimit:4;stroke-dasharray:none;stroke-opacity:1"
             id="path4351"
             inkscape:connector-curvature="0"
             sodipodi:nodetypes="cccccccscccccccccccscccccccccccc" />
          <path
             d="m 375.54877,953.70942 0,-4.5813 -5.05096,0 0,-7.02851 c 0,-0.1538 -0.0577,-0.34607 -0.17303,-0.57678 -0.0714,-0.20324 -0.16755,-0.33782 -0.28839,-0.40374 l -1.68091,-1.74683 c -0.0605,-0.0274 -0.13459,-0.0659 -0.22248,-0.11536 -0.0879,-0.055 -0.18951,-0.11261 -0.30487,-0.17303 -0.23071,-0.0769 -0.40375,-0.11536 -0.5191,-0.11536 l -6.50116,0 0,4.5813 5.05096,0 0,7.0285 c 0,0.15381 0.0577,0.34607 0.17304,0.57679 0.0605,0.18127 0.15655,0.33782 0.28839,0.46966 l 1.6809,1.68091 c 0.0605,0.0329 0.13184,0.0769 0.21424,0.13184 0.0879,0.0494 0.19226,0.10163 0.31311,0.15655 0.23071,0.0769 0.40375,0.11536 0.51911,0.11536 z m -0.87341,-2.612 -5.39704,0.0577 -0.80749,-0.80749 0,-8.01728 -1.39252,-1.33484 -5.39703,0 0,-1.1618 5.62775,0 c 0.14831,0 0.2829,0.0605 0.40374,0.18127 l 1.73859,1.68091 c 0.12085,0.11536 0.18128,0.24994 0.18128,0.40375 l 0,7.89367 5.04272,0 z m 0,1.74682 -5.62774,0 c -0.15381,0 -0.28839,-0.0577 -0.40375,-0.17303 l -1.73859,-1.68915 c -0.12085,-0.10986 -0.18128,-0.24444 -0.18128,-0.40375 l 0,-7.89367 -5.04272,0 0,-1.16181 5.39703,0 0.8075,0.8075 0,8.01728 1.39251,1.33483 5.39704,0 z"
             style="font-style:normal;font-variant:normal;font-weight:normal;font-stretch:normal;font-size:22.5px;line-height:125%;font-family:LunaEclipsed;-inkscape-font-specification:LunaEclipsed;letter-spacing:0px;word-spacing:0px;fill:#00ffff;fill-opacity:1;stroke:#00ffff;stroke-width:0;stroke-linecap:butt;stroke-linejoin:miter;stroke-miterlimit:4;stroke-dasharray:none;stroke-opacity:1"
             id="path4353"
             inkscape:connector-curvature="0"
             sodipodi:nodetypes="cccscccccscccscccccsccccccccsccsccccsccsccccccccc" />
          <path
             d="m 387.48695,922.69505 0,-8.42103 c 0,-0.15381 -0.0577,-0.34607 -0.17303,-0.57678 -0.0605,-0.17028 -0.13733,-0.30487 -0.23071,-0.40374 l -1.68091,-1.74683 c -0.0605,-0.0274 -0.13458,-0.0659 -0.22247,-0.11536 -0.0879,-0.055 -0.18952,-0.11261 -0.30488,-0.17303 -0.23071,-0.0769 -0.40375,-0.11536 -0.5191,-0.11536 l -11.03302,0 0,4.5813 9.57458,0 0,0.52734 -9.57458,0 0,4.5813 9.57458,0 0,0.46967 -9.57458,0 0,4.5813 11.03302,0 c 0.15381,0 0.34607,-0.0577 0.57678,-0.17304 0.0824,-0.0274 0.16479,-0.0631 0.2472,-0.10712 0.0879,-0.0494 0.16204,-0.0906 0.22247,-0.12359 l 1.68091,-1.68091 c 0.0274,-0.055 0.0659,-0.12634 0.11536,-0.21423 0.0549,-0.0934 0.1126,-0.19776 0.17303,-0.31311 0.0769,-0.23071 0.11536,-0.42297 0.11536,-0.57678 z m -2.55432,-5.05097 0,0.0577 c 0,0.38452 -0.19226,0.57679 -0.57678,0.57679 l -10.15961,0 0,-1.15357 9.57458,0 0,-2.26593 -9.57458,0 0,-1.16181 9.9289,0 0.80749,0.8075 z m 1.68091,5.05097 0,0.0577 c 0,0.15381 -0.0549,0.28839 -0.1648,0.40375 l -1.68915,1.68915 c -0.11535,0.11536 -0.24993,0.17303 -0.40374,0.17303 l -10.15961,0 0,-1.1618 9.9289,0 1.33484,-1.33483 0,-8.01728 -1.33484,-1.33484 -9.9289,0 0,-1.16181 10.15961,0 c 0.14831,0 0.2829,0.0604 0.40374,0.18128 l 1.68915,1.68091 c 0.10987,0.12084 0.1648,0.25543 0.1648,0.40374 z m -1.68091,-0.23072 -0.80749,0.86518 -9.9289,0 0,-1.16181 9.57458,0 0,-2.20001 -9.57458,0 0,-1.16181 10.15961,0 c 0.38452,0 0.57678,0.19227 0.57678,0.57678 z"
             style="font-style:normal;font-variant:normal;font-weight:normal;font-stretch:normal;font-size:22.5px;line-height:125%;font-family:LunaEclipsed;-inkscape-font-specification:LunaEclipsed;letter-spacing:0px;word-spacing:0px;fill:#00ffff;fill-opacity:1;stroke:#00ffff;stroke-width:0;stroke-linecap:butt;stroke-linejoin:miter;stroke-miterlimit:4;stroke-dasharray:none;stroke-opacity:1"
             id="path4355"
             inkscape:connector-curvature="0"
             sodipodi:nodetypes="sscccccsccccccccccsccccccscssccccccccccscssccccccccsccscccccccccssc" />
          <path
             d="m 413.04504,904.17493 0,-4.53186 -5.10864,0 0,-3.42774 -4.5813,0 0,3.42774 -0.46967,0 0,-5.10864 -4.58129,0 0,8.23974 c 0,0.9668 0.4834,1.4502 1.45019,1.4502 l 3.60077,0 0,5.05096 4.5813,0 0,-5.05096 5.10864,-0.0494 z m -0.87341,-2.56257 -5.68543,0.0577 c -0.38451,0 -0.57678,-0.19226 -0.57678,-0.57679 l 0,-4.00451 1.16181,0 0,3.42773 5.1004,0 z m -6.73187,-0.57678 -0.0577,0.0577 c 0,0.38452 -0.19226,0.57678 -0.57678,0.57678 l -3.37005,0 c -0.38452,0 -0.57678,-0.19226 -0.57678,-0.57678 l 0,-5.69366 1.1618,0 0,5.11688 2.20001,0 0,-3.42773 1.1618,0 z m 6.73187,2.26593 -5.1004,0.0577 0,5.05096 -1.1618,0 0,-5.63598 c 0,-0.38452 0.19226,-0.57679 0.57677,-0.57679 l 5.68543,0 z m -6.73187,5.10864 -1.21949,0 0,-5.05096 -4.46594,0 c -0.38452,0 -0.57678,-0.19501 -0.57678,-0.58502 l 0,-7.37457 1.1618,0 0,6.79778 4.46595,0 c 0.38451,0 0.57678,0.19227 0.57678,0.57679 z"
             style="font-style:normal;font-variant:normal;font-weight:normal;font-stretch:normal;font-size:22.5px;line-height:125%;font-family:LunaEclipsed;-inkscape-font-specification:LunaEclipsed;letter-spacing:0px;word-spacing:0px;fill:#00ffff;fill-opacity:1;stroke:#00ffff;stroke-width:0;stroke-linecap:butt;stroke-linejoin:miter;stroke-miterlimit:4;stroke-dasharray:none;stroke-opacity:1"
             id="path4357"
             inkscape:connector-curvature="0"
             sodipodi:nodetypes="cccccccccssccccccccscccccccssscccccccccccsscccccsscccscc" />
          <path
             d="m 443.84881,906.21743 -0.0577,-3.31239 c 0,-0.16479 -0.0412,-0.35705 -0.1236,-0.57678 -0.0494,-0.16479 -0.14559,-0.32135 -0.28839,-0.46966 l -1.68091,-1.68091 c -0.14282,-0.13733 -0.31586,-0.23346 -0.51911,-0.28839 -0.2417,-0.0769 -0.41748,-0.11536 -0.52734,-0.11536 l -7.02027,0 0,-0.52734 10.15962,0 0,-4.5813 -13.29896,0 c -0.96679,0 -1.45019,0.4834 -1.45019,1.4502 l 0,6.78954 c 0,0.96681 0.4834,1.4502 1.45019,1.4502 l 8.70941,0 0,0.46967 -10.1596,0 0,4.5813 11.6098,0 c 0.14832,0 0.34332,-0.0577 0.58502,-0.17304 0.0824,-0.0275 0.1648,-0.0631 0.24719,-0.10712 0.0824,-0.0494 0.15381,-0.0906 0.21424,-0.12359 l 1.68091,-1.68091 c 0.14282,-0.13184 0.23895,-0.30762 0.28839,-0.52734 0.0329,-0.0824 0.0714,-0.17578 0.11535,-0.28015 0.0439,-0.10987 0.0659,-0.20874 0.0659,-0.29663 z m -0.93108,-9.52515 -11.84052,0 0,5.63598 9.34387,0 0.81573,0.81574 0,2.9004 -0.81573,0.80749 -10.50568,0 0,-1.16181 10.15961,0 0,-2.20001 -9.58283,0 c -0.38452,0 -0.57678,-0.19501 -0.57678,-0.58503 l 0,-6.78954 c 0,-0.39002 0.19226,-0.58503 0.57678,-0.58503 l 12.42555,0 z m 0.0577,9.52515 -0.0577,0.0577 c 0,0.15381 -0.0577,0.28839 -0.17304,0.40375 l -1.68915,1.68915 c -0.10987,0.11536 -0.24445,0.17303 -0.40374,0.17303 l -10.7364,0 0,-1.1618 10.50568,0 1.33484,-1.33483 0,-2.9004 -1.33484,-1.34307 -8.23975,0 c -0.39001,0 -0.58502,-0.19227 -0.58502,-0.57679 l 0,-3.42773 c 0,-0.38452 0.19501,-0.57678 0.58502,-0.57678 l 10.7364,0 0,1.1618 -10.15962,0 0,2.26593 7.89368,0 c 0.16479,0 0.29938,0.0577 0.40375,0.17303 l 1.68914,1.68091 c 0.11536,0.11536 0.17304,0.24994 0.17304,0.40375 z"
             style="font-style:normal;font-variant:normal;font-weight:normal;font-stretch:normal;font-size:22.5px;line-height:125%;font-family:LunaEclipsed;-inkscape-font-specification:LunaEclipsed;letter-spacing:0px;word-spacing:0px;fill:#00ffff;fill-opacity:1;stroke:#00ffff;stroke-width:0;stroke-linecap:butt;stroke-linejoin:miter;stroke-miterlimit:4;stroke-dasharray:none;stroke-opacity:1"
             id="path4359"
             inkscape:connector-curvature="0"
             sodipodi:nodetypes="ccccccsccccssssccccscccccccccccccccccccssssccccccsccccccssssccccscccc" />
          <path
             d="m 469.21826,923.11425 -0.0577,-4.99329 c 0,-0.9668 -0.4834,-1.4502 -1.45019,-1.4502 l -8.70941,0 0,-5.10864 -4.58954,0 0,11.6098 c 0,0.15931 0.0605,0.35157 0.18127,0.57679 0.0605,0.19775 0.15656,0.35431 0.2884,0.46966 l 1.6809,1.62323 c 0.0494,0.10437 0.20326,0.21973 0.46143,0.34607 0.3186,0.0769 0.49438,0.11536 0.52734,0.11536 l 8.47046,0 c 0.14831,0 0.34332,-0.0577 0.58502,-0.17304 0.17029,-0.0549 0.3241,-0.15106 0.46143,-0.28839 l 1.68091,-1.62323 c 0.14282,-0.13184 0.23895,-0.30762 0.28839,-0.52734 0.0329,-0.0824 0.0714,-0.17578 0.11536,-0.28015 0.0439,-0.10987 0.0659,-0.20874 0.0659,-0.29663 z m -2.61201,-0.23072 -0.81573,0.86518 -8.00903,0 -0.81574,-0.8075 0,-10.51392 1.1618,0 0,10.15961 7.3169,0 0,-2.20001 -6.78955,0 0,-1.16181 7.36633,0 c 0.39001,0 0.58502,0.19227 0.58502,0.57678 z m 1.73859,0.23072 -0.0577,0.0577 c 0,0.15381 -0.0577,0.28839 -0.17303,0.40375 l -1.68915,1.68915 c -0.10987,0.11536 -0.24444,0.17303 -0.40375,0.17303 l -8.47046,0 c -0.15381,0 -0.29114,-0.0577 -0.41199,-0.17303 l -1.68091,-1.68915 c -0.11535,-0.11536 -0.17303,-0.24994 -0.17303,-0.40375 l 0,-10.74463 1.1618,0 0,10.51392 1.33485,1.33484 8.00903,0 1.33484,-1.33484 0,-4.24347 -8.47046,0 0,-1.15356 9.05548,0 c 0.38451,0 0.57678,0.19226 0.57678,0.57678 z m -3.7738,-1.4502 -5.57007,0.0577 0,-0.46966 5.57007,0 z"
             style="font-style:normal;font-variant:normal;font-weight:normal;font-stretch:normal;font-size:22.5px;line-height:125%;font-family:LunaEclipsed;-inkscape-font-specification:LunaEclipsed;letter-spacing:0px;word-spacing:0px;fill:#00ffff;fill-opacity:1;stroke:#00ffff;stroke-width:0;stroke-linecap:butt;stroke-linejoin:miter;stroke-miterlimit:4;stroke-dasharray:none;stroke-opacity:1"
             id="path4361"
             inkscape:connector-curvature="0"
             sodipodi:nodetypes="ccscccsccccssccccccccccccccccccsscccscssccscccccccccsccccccc" />
          <path
             d="m 481.11099,954.28344 0,-11.6098 c 0,-0.15381 -0.0577,-0.34608 -0.17304,-0.57679 -0.0605,-0.17028 -0.13733,-0.30487 -0.23071,-0.40374 l -1.73859,-1.68915 c -0.0494,-0.0989 -0.206,-0.21423 -0.46966,-0.34607 -0.30762,-0.0769 -0.48065,-0.11536 -0.51911,-0.11536 l -11.6098,0 0,4.58131 10.15137,0 0,10.1596 z m -0.87342,-0.86518 -1.15356,0 0,-10.51391 -1.33484,-1.33484 -10.50568,0 0,-1.1618 10.73639,0 c 0.14832,0 0.28291,0.0604 0.40375,0.18127 l 1.68915,1.68091 c 0.10986,0.12085 0.16479,0.25543 0.16479,0.40375 z m -1.6809,0 -1.16181,0 0,-10.1596 -10.15137,0 0,-1.16181 10.50568,0 0.8075,0.8075 z"
             style="font-style:normal;font-variant:normal;font-weight:normal;font-stretch:normal;font-size:22.5px;line-height:125%;font-family:LunaEclipsed;-inkscape-font-specification:LunaEclipsed;letter-spacing:0px;word-spacing:0px;fill:#00ffff;fill-opacity:1;stroke:#00ffff;stroke-width:0;stroke-linecap:butt;stroke-linejoin:miter;stroke-miterlimit:4;stroke-dasharray:none;stroke-opacity:1"
             id="path4363"
             inkscape:connector-curvature="0"
             sodipodi:nodetypes="csccccscccccccccccsccsccccccccc" />
          <path
             d="m 475.67907,981.15253 0,-5.05097 c 0,-0.96679 -0.48339,-1.45019 -1.45019,-1.45019 l -0.28839,0 0.0577,-1.91986 c 0,-0.15381 -0.0577,-0.34608 -0.17304,-0.57678 -0.0714,-0.20325 -0.16754,-0.33783 -0.28838,-0.40375 l -1.68916,-1.74683 c -0.0769,-0.0769 -0.23071,-0.17303 -0.46143,-0.28839 -0.30761,-0.0769 -0.48065,-0.11535 -0.5191,-0.11535 l -5.11688,0 c -0.15381,0 -0.34607,0.0577 -0.57678,0.17303 -0.0879,0.0329 -0.17304,0.0742 -0.25543,0.12359 -0.0824,0.044 -0.15107,0.0797 -0.206,0.10712 l -1.6809,1.74683 c -0.0879,0.0879 -0.18677,0.24169 -0.29664,0.46142 -0.0769,0.30762 -0.11535,0.48065 -0.11535,0.51911 l 0,1.91986 -0.23072,0 c -0.96679,0 -1.45019,0.4834 -1.45019,1.45019 l 0,5.10864 c 0,0.15381 0.0577,0.34608 0.17303,0.57679 0.0605,0.18127 0.15656,0.33782 0.28839,0.46967 l 1.63148,1.6809 c 0.0494,0.0329 0.11811,0.0769 0.20598,0.13184 0.0934,0.0494 0.19776,0.10163 0.31312,0.15655 0.23071,0.0769 0.40374,0.11536 0.5191,0.11536 l 8.4787,0 c 0.15381,0 0.34607,-0.0577 0.57678,-0.17304 0.0824,-0.0274 0.16479,-0.0631 0.2472,-0.10711 0.0879,-0.0494 0.16204,-0.0906 0.22247,-0.1236 l 1.68091,-1.6809 c 0.0274,-0.055 0.0659,-0.12635 0.11535,-0.21424 0.0549,-0.0934 0.11261,-0.19775 0.17304,-0.31311 0.0769,-0.23071 0.11536,-0.42297 0.11536,-0.57678 z m -0.87341,0 0,0.0577 c 0,0.15381 -0.0549,0.28839 -0.1648,0.40375 l -1.68914,1.68915 c -0.11536,0.11536 -0.24994,0.17303 -0.40375,0.17303 l -8.4787,0 c -0.1538,0 -0.28839,-0.0577 -0.40375,-0.17303 l -1.68091,-1.68915 c -0.11535,-0.11536 -0.17303,-0.24994 -0.17303,-0.40375 l 0,-5.10864 c 0,-0.38451 0.19226,-0.57678 0.57678,-0.57678 l 1.10413,0 0,-2.79327 c 0,-0.15381 0.0577,-0.28839 0.17303,-0.40375 l 1.68091,-1.68091 c 0.12085,-0.12085 0.25543,-0.18127 0.40375,-0.18127 l 5.11688,0 c 0.14832,0 0.2829,0.0604 0.40375,0.18127 l 1.68091,1.68091 c 0.11536,0.11536 0.17303,0.24994 0.17303,0.40375 l -0.0577,2.79327 1.16181,0 c 0.38452,0 0.57678,0.19227 0.57678,0.57678 z m -1.15357,-0.23072 0,-4.24347 -1.1618,0 c -0.39001,0 -0.58502,-0.19226 -0.58502,-0.57678 l 0.0577,-3.13934 -1.33484,-1.33484 -4.63897,0 -1.33485,1.33484 0,3.13934 c 0,0.38452 -0.195,0.57678 -0.58502,0.57678 l -1.09588,0 0,4.30116 1.3266,1.33483 8.01727,0 1.33484,-1.39252 z m -2.20824,-4.82025 -0.0577,0 c 0,0.38452 -0.19501,0.57678 -0.58502,0.57678 l -5.05096,0 c -0.38452,0 -0.57679,-0.19226 -0.57679,-0.57678 l 0,-3.13934 0.81574,-0.80749 4.63898,0 0.75805,0.80749 z m 1.6809,4.82025 -0.80749,0.86518 -8.01728,0 -0.80749,-0.80749 0,-3.13935 c 0,-0.38452 0.19226,-0.57679 0.57678,-0.57679 l 8.4787,0 c 0.38452,0 0.57678,0.19227 0.57678,0.57679 z m -2.84271,-7.60528 -3.94684,0 0,2.20825 3.88916,0 z m 1.68091,7.25097 0,-2.14233 -7.30866,0 0,2.20001 z m -2.55433,-5.91613 -2.2,0 0,-0.46967 2.15057,0 z m 1.68092,5.05096 -5.57007,0.0577 0,-0.46966 5.57007,0 z"
             style="font-style:normal;font-variant:normal;font-weight:normal;font-stretch:normal;font-size:22.5px;line-height:125%;font-family:LunaEclipsed;-inkscape-font-specification:LunaEclipsed;letter-spacing:0px;word-spacing:0px;fill:#00ffff;fill-opacity:1;stroke:#00ffff;stroke-width:0;stroke-linecap:butt;stroke-linejoin:miter;stroke-miterlimit:4;stroke-dasharray:none;stroke-opacity:1"
             id="path4365"
             inkscape:connector-curvature="0"
             sodipodi:nodetypes="sssccccccsscccccscssscccccssccccccscsccssccssscssssscsccsscccscccccssccccccccssscccccccccssssccccccccccccccccccccc" />
          <path
             d="m 454.83736,1006.3059 0,-11.60997 c 0,-0.1537 -0.0577,-0.346 -0.17303,-0.5767 -0.0605,-0.1703 -0.13733,-0.3049 -0.23071,-0.4037 l -1.73859,-1.6892 c -0.0494,-0.099 -0.20601,-0.2143 -0.46967,-0.3461 -0.30761,-0.077 -0.48065,-0.1154 -0.5191,-0.1154 l -8.4787,0 c -0.1538,0 -0.34607,0.058 -0.57678,0.1731 -0.19226,0.066 -0.34607,0.162 -0.46142,0.2884 l -1.68915,1.6892 c -0.0769,0.077 -0.17304,0.2307 -0.28839,0.4614 -0.0769,0.3076 -0.11536,0.4806 -0.11536,0.519 l 0,5.10871 c 0,0.96686 0.4834,1.45026 1.45019,1.45026 l 8.29742,0 0,-4.58137 -5.16631,0 0,-0.5274 5.57006,0 0,10.15977 z m -0.87341,-0.8652 -1.15357,0 0,-10.51397 -1.33483,-1.3348 -8.01728,0 -1.3266,1.3348 0,4.30108 6.96259,0 0,1.16199 -7.54761,0 c -0.38452,0 -0.57678,-0.1951 -0.57678,-0.58516 l 0,-5.10871 c 0,-0.1537 0.0577,-0.2883 0.17303,-0.4037 l 1.68091,-1.6809 c 0.12085,-0.1208 0.25544,-0.1813 0.40375,-0.1813 l 8.4787,0 c 0.14832,0 0.2829,0.061 0.40374,0.1813 l 1.68915,1.6809 c 0.10987,0.1209 0.1648,0.2555 0.1648,0.4037 z m -1.68091,0 -1.16181,0 0,-10.15967 -7.30865,0 0,2.2659 5.28168,0 0,1.1536 -5.8667,0 c -0.38452,0 -0.57678,-0.1923 -0.57678,-0.5768 l 0,-3.197 0.80749,-0.8075 8.01728,0 0.80749,0.8075 z"
             style="font-style:normal;font-variant:normal;font-weight:normal;font-stretch:normal;font-size:22.5px;line-height:125%;font-family:LunaEclipsed;-inkscape-font-specification:LunaEclipsed;letter-spacing:0px;word-spacing:0px;fill:#00ffff;fill-opacity:1;stroke:#00ffff;stroke-width:0;stroke-linecap:butt;stroke-linejoin:miter;stroke-miterlimit:4;stroke-dasharray:none;stroke-opacity:1"
             id="path4367"
             inkscape:connector-curvature="0"
             sodipodi:nodetypes="csccccssccscsssccccccccccccccccsssssssccsccccccccssccccc" />
          <path
             d="m 401.02408,1005.8775 0,-4.812 c 0,-0.1593 -0.0577,-0.3543 -0.17304,-0.5851 -0.0329,-0.082 -0.0742,-0.1647 -0.1236,-0.2471 -0.0439,-0.082 -0.0797,-0.1538 -0.10711,-0.2143 l -1.57379,-1.50761 1.57379,-1.50785 c 0.0274,-0.061 0.0659,-0.1346 0.11536,-0.2225 0.0549,-0.088 0.1126,-0.1895 0.17303,-0.3048 0.0769,-0.2307 0.11536,-0.4038 0.11536,-0.5191 l 0,-4.8203 -4.58955,0 0,3.3618 -5.57007,0 0,-3.3618 -4.58129,0 0,4.8203 c 0,0.2142 0.0577,0.4064 0.17303,0.5767 0.0549,0.1703 0.15106,0.3269 0.28839,0.4697 l 1.50788,1.50785 -1.50788,1.50761 c -0.11535,0.1154 -0.23071,0.2884 -0.34607,0.5192 -0.0769,0.2307 -0.11535,0.4064 -0.11535,0.5273 l 0,4.812 4.58129,0 0,-3.3618 5.57007,0 0,3.3618 z m -2.55432,-10.15936 -0.8075,0.8157 -8.01727,0 -0.8075,-0.8157 0,-3.7161 1.1618,0 0,3.37 7.30866,0 0,-3.37 1.1618,0 z m 1.6809,0.239 c 0,0.1537 -0.0549,0.2884 -0.16479,0.4037 l -1.68916,1.73855 c -0.11535,0.1153 -0.24993,0.173 -0.40374,0.173 l -8.4787,0 c -0.15381,0 -0.28839,-0.058 -0.40375,-0.173 l -1.6809,-1.73855 c -0.11536,-0.1153 -0.17304,-0.25 -0.17304,-0.4037 l 0,-3.9551 1.16181,0 0,3.7161 1.3266,1.4007 8.01727,0 1.33484,-1.4007 0,-3.7161 1.15356,0 z m 0,9.05516 -1.15356,0 0,-3.7161 -1.33484,-1.33461 -8.01727,0 -1.3266,1.33461 0,3.7161 -1.16181,0 0,-3.9468 c 0,-0.1483 0.0577,-0.2857 0.17304,-0.412 l 1.6809,-1.68071 c 0.11536,-0.1154 0.24994,-0.1731 0.40375,-0.1731 l 8.4787,0 c 0.15381,0 0.28839,0.058 0.40374,0.1731 l 1.68916,1.68071 c 0.10986,0.1318 0.16479,0.2691 0.16479,0.412 z m -1.6809,0 -1.16181,0 0,-3.37 -7.30866,0 0,3.37 -1.1618,0 0,-3.7161 0.8075,-0.8158 8.01727,0 0.8075,0.8158 z"
             style="font-style:normal;font-variant:normal;font-weight:normal;font-stretch:normal;font-size:22.5px;line-height:125%;font-family:LunaEclipsed;-inkscape-font-specification:LunaEclipsed;letter-spacing:0px;word-spacing:0px;fill:#00ffff;fill-opacity:1;stroke:#00ffff;stroke-width:0;stroke-linecap:butt;stroke-linejoin:miter;stroke-miterlimit:4;stroke-dasharray:none;stroke-opacity:1"
             id="path4369"
             inkscape:connector-curvature="0"
             sodipodi:nodetypes="cscccccccsccccccscccscscccccccccccccccccsccssccsccccccccsccccccccscsssccscccccccccccc" />
        </g>
      </g>
    </g>
    <rect
       style="fill:none;fill-opacity:1;stroke:#000000;stroke-width:0.35433072;stroke-miterlimit:6.18181801;stroke-dasharray:none;stroke-opacity:1"
       id="rect5076"
       width="38.142365"
       height="183.41795"
       x="117.35194"
       y="112.17662" />
    <rect
       y="124.08274"
       x="396.91336"
       height="183.41795"
       width="38.142365"
       id="rect5078"
       style="fill:none;fill-opacity:1;stroke:#000000;stroke-width:0.35433072;stroke-miterlimit:6.18181801;stroke-dasharray:none;stroke-opacity:1" />
    <rect
       style="fill:none;fill-opacity:1;stroke:#000000;stroke-width:0.35433072;stroke-miterlimit:6.18181801;stroke-dasharray:none;stroke-opacity:1"
       id="rect5080"
       width="38.142365"
       height="183.41795"
       x="-89.94252"
       y="182.37863"
       transform="matrix(0,-1,1,0,0,0)" />
    <rect
       transform="matrix(0,-1,1,0,0,0)"
       y="184.61104"
       x="-370.80673"
       height="183.41795"
       width="38.142365"
       id="rect5082"
       style="fill:none;fill-opacity:1;stroke:#000000;stroke-width:0.35433072;stroke-miterlimit:6.18181801;stroke-dasharray:none;stroke-opacity:1" />
    <g
       id="g5155"
       transform="translate(-457.11504,0)">
      <rect
         ry="37.244934"
         rx="39.020241"
         y="25.484831"
         x="538.51691"
         height="371.68417"
         width="389.4007"
         id="rect5058"
         style="fill:none;fill-opacity:1;stroke:#000000;stroke-width:0.36306909;stroke-miterlimit:6.18181801;stroke-dasharray:none;stroke-opacity:1" />
      <rect
         style="display:inline;opacity:0.93999999;fill:none;fill-opacity:1;stroke:#000000;stroke-width:0.35433072;stroke-linecap:butt;stroke-linejoin:round;stroke-miterlimit:6.18181801;stroke-dasharray:none;stroke-opacity:1;enable-background:new"
         id="rect7201"
         width="229.81497"
         height="229.81363"
         x="618.30981"
         y="96.420105"
         rx="17.716536"
         ry="17.716536" />
      <rect
         style="fill:none;fill-opacity:1;stroke:#000000;stroke-width:0.35433072;stroke-miterlimit:6.18181801;stroke-dasharray:none;stroke-opacity:1"
         id="rect5088"
         width="318.24249"
         height="318.24249"
         x="574.09607"
         y="52.205673"
         rx="31.889765"
         ry="31.889765" />
    </g>
    <g
       id="g5106"
       transform="translate(-456.90644,513.01924)">
      <ellipse
         ry="56.543877"
         rx="56.543873"
         cy="232.81497"
         cx="632.40442"
         id="path5102"
         style="fill:none;fill-opacity:1;stroke:#000000;stroke-width:0.29807678;stroke-miterlimit:6.18181801;stroke-dasharray:none;stroke-opacity:1" />
      <circle
         r="79.52459"
         cy="232.81497"
         cx="632.40442"
         id="path5104"
         style="fill:none;fill-opacity:1;stroke:#000000;stroke-width:0.39964065;stroke-miterlimit:6.18181801;stroke-dasharray:none;stroke-opacity:1" />
    </g>
    <rect
       y="692.68463"
       x="104.63184"
       height="106.29921"
       width="141.73228"
       id="rect5112"
       style="fill:none;fill-opacity:1;stroke:#000000;stroke-width:0.35433072;stroke-miterlimit:6.18181801;stroke-dasharray:none;stroke-opacity:1" />
    <rect
       y="648.50836"
       x="78.172127"
       height="194.6517"
       width="194.6517"
       id="rect5114"
       style="fill:none;fill-opacity:1;stroke:#000000;stroke-width:0.23018561;stroke-miterlimit:6.18181801;stroke-dasharray:none;stroke-opacity:1"
       rx="35.429077"
       ry="43.312489" />
    <ellipse
       style="fill:none;fill-opacity:1;stroke:#000000;stroke-width:0.33866653;stroke-miterlimit:6.18181801;stroke-dasharray:none;stroke-opacity:1"
       id="ellipse5122"
       cx="175.49799"
       cy="745.83423"
       rx="35.263741"
       ry="35.263737" />
    <circle
       style="fill:none;fill-opacity:1;stroke:#000000;stroke-width:0.19820276;stroke-miterlimit:6.18181801;stroke-dasharray:none;stroke-opacity:1"
       id="path5124"
       cx="175.49799"
       cy="745.83423"
       r="88.483574" />
    <g
       style="display:inline;enable-background:new"
       id="g4309"
       transform="translate(114.06673,-198.70458)">
      <rect
         ry="124.01575"
         rx="35.433071"
         y="286.37009"
         x="-34.724411"
         height="247.32283"
         width="389.05511"
         id="rect4305"
         style="opacity:1;fill:none;fill-opacity:1;stroke:#000000;stroke-width:0.7086615;stroke-linecap:butt;stroke-linejoin:miter;stroke-miterlimit:4;stroke-dasharray:none;stroke-opacity:1" />
      <rect
         y="301.95596"
         x="51.732082"
         height="216.14174"
         width="216.14174"
         id="rect4307"
         style="opacity:1;fill:none;fill-opacity:1;stroke:#000000;stroke-width:0.70866144;stroke-linecap:butt;stroke-linejoin:miter;stroke-miterlimit:4;stroke-dasharray:none;stroke-opacity:1" />
    </g>
    <g
       transform="matrix(0.95456694,0,0,0.95235752,-432.65691,18.930687)"
       id="g5160">
      <rect
         style="fill:none;fill-opacity:1;stroke:#000000;stroke-width:0.34534794;stroke-miterlimit:6.18181801;stroke-dasharray:none;stroke-opacity:1"
         id="rect5162"
         width="370.84991"
         height="353.10822"
         x="547.78369"
         y="34.763733" />
      <rect
         ry="17.716536"
         rx="17.716536"
         y="96.420105"
         x="618.30981"
         height="229.81363"
         width="229.81497"
         id="rect5164"
         style="display:inline;opacity:0.93999999;fill:none;fill-opacity:1;stroke:#000000;stroke-width:0.35433072;stroke-linecap:butt;stroke-linejoin:round;stroke-miterlimit:6.18181801;stroke-dasharray:none;stroke-opacity:1;enable-background:new" />
      <rect
         ry="31.889765"
         rx="31.889765"
         y="52.205673"
         x="574.09607"
         height="318.24249"
         width="318.24249"
         id="rect5166"
         style="fill:none;fill-opacity:1;stroke:#000000;stroke-width:0.35433072;stroke-miterlimit:6.18181801;stroke-dasharray:none;stroke-opacity:1" />
    </g>
  </g>
</svg>
